<svg width="58" height="58" viewBox="0 0 58 58" fill="none" xmlns="http://www.w3.org/2000/svg">
<g clip-path="url(#clip0_980_213)">
<path fill-rule="evenodd" clip-rule="evenodd" d="M54.375 7.25C54.375 6.28859 53.9931 5.36656 53.3133 4.68674C52.6334 4.00692 51.7114 3.625 50.75 3.625H7.25C6.28859 3.625 5.36656 4.00692 4.68674 4.68674C4.00692 5.36656 3.625 6.28859 3.625 7.25V50.75C3.625 51.7114 4.00692 52.6334 4.68674 53.3133C5.36656 53.9931 6.28859 54.375 7.25 54.375H50.75C51.7114 54.375 52.6334 53.9931 53.3133 53.3133C53.9931 52.6334 54.375 51.7114 54.375 50.75V7.25ZM0 7.25C0 5.32718 0.763837 3.48311 2.12348 2.12348C3.48311 0.763837 5.32718 0 7.25 0L50.75 0C52.6728 0 54.5169 0.763837 55.8765 2.12348C57.2362 3.48311 58 5.32718 58 7.25V50.75C58 52.6728 57.2362 54.5169 55.8765 55.8765C54.5169 57.2362 52.6728 58 50.75 58H7.25C5.32718 58 3.48311 57.2362 2.12348 55.8765C0.763837 54.5169 0 52.6728 0 50.75V7.25ZM36.598 39.1609C36.7652 39.334 36.9652 39.4721 37.1863 39.5671C37.4075 39.662 37.6453 39.7121 37.886 39.7141C38.1266 39.7162 38.3653 39.6704 38.588 39.5792C38.8108 39.4881 39.0132 39.3535 39.1833 39.1833C39.3535 39.0132 39.4881 38.8108 39.5792 38.588C39.6704 38.3653 39.7162 38.1266 39.7141 37.886C39.7121 37.6453 39.662 37.4075 39.5671 37.1863C39.4721 36.9652 39.334 36.7652 39.1609 36.598L24.3129 21.75H34.3469C34.8276 21.75 35.2886 21.559 35.6285 21.2191C35.9684 20.8792 36.1594 20.4182 36.1594 19.9375C36.1594 19.4568 35.9684 18.9958 35.6285 18.6559C35.2886 18.316 34.8276 18.125 34.3469 18.125H19.9375C19.4568 18.125 18.9958 18.316 18.6559 18.6559C18.316 18.9958 18.125 19.4568 18.125 19.9375V34.3469C18.125 34.8276 18.316 35.2886 18.6559 35.6285C18.9958 35.9684 19.4568 36.1594 19.9375 36.1594C20.4182 36.1594 20.8792 35.9684 21.2191 35.6285C21.559 35.2886 21.75 34.8276 21.75 34.3469V24.3129L36.598 39.1609Z" fill="black"/>
</g>
<defs>
<clipPath id="clip0_980_213">
<rect width="58" height="58" fill="white"/>
</clipPath>
</defs>
</svg>
