<svg width="25" height="25" viewBox="0 0 25 25" fill="none" xmlns="http://www.w3.org/2000/svg">
<mask id="mask0_171_294" style="mask-type:alpha" maskUnits="userSpaceOnUse" x="0" y="0" width="25" height="25">
<rect width="25" height="25" fill="#D9D9D9"/>
</mask>
<g mask="url(#mask0_171_294)">
<path d="M7.29159 21.875V18.75H5.20825V16.6667H7.29159V14.5833H5.20825V12.5H7.29159V3.125H14.0624C15.6596 3.125 17.0138 3.68056 18.1249 4.79167C19.236 5.90278 19.7916 7.25694 19.7916 8.85417C19.7916 10.4514 19.236 11.8056 18.1249 12.9167C17.0138 14.0278 15.6596 14.5833 14.0624 14.5833H9.37492V16.6667H13.5416V18.75H9.37492V21.875H7.29159ZM9.37492 12.5H14.0624C15.0694 12.5 15.9287 12.1441 16.6405 11.4323C17.3523 10.7205 17.7083 9.86111 17.7083 8.85417C17.7083 7.84722 17.3523 6.98785 16.6405 6.27604C15.9287 5.56424 15.0694 5.20833 14.0624 5.20833H9.37492V12.5Z" fill="#1C1B1F"/>
</g>
</svg>
