<svg width="80" height="35" viewBox="0 0 80 35" fill="none" xmlns="http://www.w3.org/2000/svg">
<g clip-path="url(#clip0_261_45)">
<path d="M70.1258 9.99082V18.5477H66.6198V12.5452H63.244V18.5477H59.738V9.99023H70.1258V9.99082Z" fill="black"/>
<path fill-rule="evenodd" clip-rule="evenodd" d="M52.5372 18.8533C55.676 18.8533 58.0067 17.1762 58.0067 14.634C58.0067 12.1732 56.2871 10.5755 53.4134 10.5755C52.0871 10.5755 50.9927 10.9824 50.1684 11.6844C50.3652 10.2334 51.7732 9.17404 53.3233 9.17404C53.6811 9.17404 56.3745 9.16908 56.3745 9.16908L57.8972 6.62866C57.8972 6.62866 54.5161 6.69575 52.9442 6.69575C49.3525 6.75058 46.9265 9.59579 46.9265 13.0512C46.9265 17.0773 49.2926 18.8536 52.5375 18.8536L52.5372 18.8533ZM52.5566 12.8254C53.7219 12.8254 54.5298 13.4927 54.5298 14.6337C54.5298 15.6604 53.8119 16.5068 52.5566 16.5092C51.3558 16.5092 50.5479 15.7252 50.5479 14.6512C50.5479 13.51 51.3558 12.8254 52.5566 12.8254Z" fill="black"/>
<path d="M44.0728 15.683C44.0728 15.683 43.2448 16.0989 42.0079 16.1777C40.5866 16.2144 39.3198 15.4319 39.3198 14.0415C39.3198 12.6853 40.4376 11.908 41.9724 11.908C42.9135 11.908 44.1585 12.4764 44.1585 12.4764C44.1585 12.4764 45.0694 11.0196 45.5413 10.291C44.6772 9.72019 43.5263 9.40723 42.1876 9.40723C38.8091 9.40723 36.1924 11.327 36.1924 14.0243C36.1924 16.7561 38.6518 18.6312 42.1876 18.5743C43.1759 18.5422 44.5393 18.2401 45.3703 17.7749L44.0728 15.683Z" fill="black"/>
<path d="M0.961914 7.61841L5.82529 15.1944V19.8156L0.967603 27.3768L0.961914 7.61841Z" fill="#5B57A2"/>
<path d="M19.6353 12.4374L24.1924 10.0032L33.5189 9.99561L19.6353 17.408V12.4374Z" fill="#D90751"/>
<path d="M19.6095 7.57371L19.6353 17.6041L14.7605 14.9937V0L19.6095 7.57371Z" fill="#FAB718"/>
<path d="M33.5189 9.99571L24.1921 10.0033L19.6095 7.57371L14.7605 0L33.5189 9.99571Z" fill="#ED6F26"/>
<path d="M19.6353 27.4187V22.5523L14.7605 19.9915L14.7632 35L19.6353 27.4187Z" fill="#63B22F"/>
<path d="M24.1811 25.0067L5.82496 15.1944L0.961914 7.61841L33.4992 24.9968L24.1811 25.0067Z" fill="#1487C9"/>
<path d="M14.7634 35.0001L19.6348 27.4188L24.1806 25.0067L33.4987 24.9968L14.7634 35.0001Z" fill="#017F36"/>
<path d="M0.967529 27.3766L14.8003 19.9916L10.1498 17.5049L5.82522 19.8155L0.967529 27.3766Z" fill="#984995"/>
<path d="M39.321 24.3068C39.2139 24.4258 39.073 24.5156 38.904 24.5763C38.7306 24.6378 38.5451 24.6691 38.3578 24.6684C38.1716 24.6706 37.9865 24.6436 37.8113 24.5885C37.654 24.5387 37.5102 24.461 37.389 24.3604C37.2693 24.2596 37.1753 24.138 37.1132 24.0034C37.0459 23.8559 37.0124 23.6984 37.0145 23.5397C37.0145 23.3822 37.0456 23.2363 37.1102 23.0984C37.1693 22.9648 37.2593 22.8433 37.3746 22.7414C37.4895 22.6401 37.6253 22.5587 37.7749 22.5013C37.9298 22.443 38.0988 22.4115 38.2846 22.4115C38.4847 22.4115 38.6704 22.4334 38.8394 22.4768C39.0084 22.5206 39.152 22.5935 39.2702 22.6956L39.0647 22.9989C38.9653 22.9204 38.8482 22.8608 38.721 22.8239C38.5999 22.7899 38.4734 22.7728 38.3461 22.7732C38.234 22.7732 38.1269 22.7924 38.0228 22.8286C37.9203 22.8647 37.8265 22.9176 37.7467 22.9843C37.6652 23.0529 37.6009 23.1356 37.558 23.227C37.5094 23.3265 37.4855 23.4339 37.4877 23.542C37.4877 23.6613 37.5128 23.7681 37.5607 23.8599C37.6089 23.955 37.6735 24.0349 37.7548 24.1029C37.8368 24.1711 37.9322 24.2219 38.0423 24.256C38.154 24.2924 38.2724 24.3104 38.3917 24.3094C38.5436 24.3094 38.6818 24.2826 38.7999 24.2315C38.917 24.1822 39.0222 24.1139 39.1098 24.0303L39.321 24.3068ZM39.901 24.6174V22.4576H40.3461V24.0667L41.7935 22.4576H42.2386V24.6177H41.7935V23.0086L40.3461 24.6177L39.901 24.6174ZM45.1871 24.3068C45.0776 24.4268 44.9339 24.5197 44.7704 24.5763C44.5969 24.6378 44.4112 24.6691 44.2239 24.6684C44.0378 24.6706 43.8528 24.6435 43.6777 24.5885C43.5203 24.5387 43.3764 24.4611 43.255 24.3604C43.1353 24.2596 43.0414 24.138 42.9793 24.0034C42.912 23.8559 42.8784 23.6984 42.8805 23.5397C42.8805 23.3822 42.9117 23.2363 42.9763 23.0984C43.0385 22.9598 43.1285 22.8411 43.2406 22.7414C43.3555 22.6401 43.4913 22.5587 43.6409 22.5013C43.8014 22.4397 43.9753 22.4091 44.1506 22.4115C44.3507 22.4115 44.5365 22.4334 44.7055 22.4768C44.8745 22.5206 45.0181 22.5935 45.1365 22.6956L44.9307 22.9989C44.8315 22.9204 44.7145 22.8608 44.5873 22.8239C44.4662 22.7899 44.3397 22.7728 44.2125 22.7732C43.9889 22.7739 43.7742 22.8495 43.6128 22.9843C43.5319 23.0534 43.4677 23.136 43.424 23.227C43.3755 23.3265 43.3515 23.4339 43.3538 23.542C43.3538 23.6613 43.3792 23.7681 43.427 23.8599C43.4749 23.955 43.5395 24.0349 43.6212 24.1029C43.7028 24.1711 43.7985 24.2219 43.9086 24.256C44.0184 24.2898 44.1339 24.3094 44.2577 24.3094C44.41 24.3094 44.5452 24.2826 44.666 24.2315C44.783 24.1822 44.8882 24.1139 44.9759 24.0303L45.1871 24.3068ZM45.4153 22.4576H47.6991V22.8411H46.7811V24.6174H46.336V22.8411H45.418V22.4576H45.4153Z" fill="black"/>
<path fill-rule="evenodd" clip-rule="evenodd" d="M49.7776 24.5958C49.9466 24.5497 50.0902 24.4792 50.214 24.3823L50.0788 24.0813C49.9972 24.1446 49.8874 24.198 49.7552 24.2417C49.6227 24.2855 49.4734 24.3071 49.3101 24.3071C49.0651 24.3071 48.8623 24.2514 48.7017 24.1373C48.541 24.023 48.454 23.8632 48.4339 23.659H50.3606C50.3811 23.5736 50.3905 23.4866 50.3887 23.3994C50.3908 23.2609 50.3591 23.1236 50.2957 22.9966C50.238 22.8788 50.1538 22.7723 50.048 22.6834C49.9408 22.5953 49.8143 22.5269 49.6762 22.4821C49.5316 22.4332 49.3778 22.4085 49.2227 22.4092C49.0142 22.4092 48.8312 22.4407 48.6705 22.499C48.5191 22.5546 48.3821 22.6364 48.2679 22.7394C48.157 22.8418 48.0717 22.9633 48.0176 23.0961C47.9581 23.2375 47.9285 23.3871 47.9302 23.5377C47.9302 23.7077 47.9637 23.8629 48.026 24.0014C48.0862 24.1356 48.1784 24.2572 48.2964 24.3581C48.4118 24.4573 48.5524 24.5328 48.7187 24.5862C48.8968 24.6412 49.0847 24.6683 49.2736 24.6661C49.4447 24.6652 49.6147 24.6413 49.7776 24.5958ZM48.6511 22.9333C48.789 22.8242 48.9721 22.7709 49.203 22.7709C49.4199 22.7709 49.5945 22.8219 49.7214 22.924C49.8482 23.0258 49.9155 23.1667 49.9269 23.346H48.4061C48.4277 23.1872 48.5148 23.0403 48.6511 22.9333Z" fill="black"/>
<path d="M50.9941 22.4575H51.3998L52.3629 23.5279L53.2752 22.4575H53.6695V24.6176H53.2244V23.0426L52.3572 24.0448H52.3402L51.4392 23.0423V24.6173H50.9941V22.4575Z" fill="black"/>
<path fill-rule="evenodd" clip-rule="evenodd" d="M54.88 22.4648C54.745 22.4956 54.6161 22.5438 54.4975 22.6078L54.6156 22.914C54.717 22.8703 54.8184 22.8338 54.9198 22.8023C55.0212 22.7702 55.1508 22.7556 55.3057 22.7556C55.4295 22.7556 55.5283 22.7731 55.6042 22.807C55.6802 22.8385 55.7364 22.8872 55.7759 22.9455C55.8154 23.0038 55.8408 23.0765 55.8549 23.1613C55.8689 23.2462 55.8746 23.3384 55.8746 23.4381C55.7835 23.3828 55.6795 23.3455 55.5701 23.3288C55.4645 23.3105 55.3572 23.3007 55.2495 23.2996C55.117 23.2996 54.9931 23.3168 54.8746 23.3457C54.7565 23.3748 54.6551 23.4186 54.5735 23.4769C54.49 23.5351 54.4225 23.6089 54.376 23.6928C54.3265 23.7846 54.3016 23.885 54.303 23.9865C54.303 24.1976 54.3733 24.3627 54.5139 24.4794C54.6551 24.5958 54.8408 24.6538 55.0718 24.6538C55.2803 24.6538 55.4466 24.6223 55.5731 24.5593C55.6999 24.496 55.8013 24.4234 55.8743 24.3406V24.62H56.2913V23.2949C56.2913 23.0132 56.221 22.795 56.0771 22.6416C55.9365 22.4891 55.6855 22.4112 55.3308 22.4112C55.1732 22.4112 55.0236 22.4307 54.88 22.4648ZM55.6243 24.2148C55.5229 24.2778 55.39 24.3067 55.2271 24.3067C55.0831 24.3067 54.9707 24.2752 54.8921 24.2146C54.8131 24.1516 54.7736 24.0687 54.7736 23.9666C54.7736 23.9066 54.7876 23.8555 54.8188 23.8091C54.8499 23.7628 54.8921 23.7269 54.9399 23.6977C54.9923 23.6672 55.0504 23.645 55.1116 23.6321C55.1765 23.6175 55.2411 23.6102 55.3087 23.6102C55.5286 23.6102 55.717 23.6563 55.872 23.7531V24.0273C55.799 24.0987 55.7157 24.1619 55.6243 24.2148ZM60.2203 21.6978C60.3103 21.6616 60.3943 21.6009 60.4736 21.5111L60.2313 21.2078C60.1694 21.2807 60.0991 21.3314 60.0201 21.3583C59.9364 21.3868 59.8497 21.4079 59.7611 21.4213L59.6768 21.4344C59.6032 21.4455 59.5248 21.4577 59.4402 21.47C59.3044 21.4919 59.172 21.5277 59.0459 21.5767C58.8458 21.652 58.6855 21.7538 58.564 21.8824C58.4425 22.011 58.3475 22.1566 58.2826 22.317C58.2168 22.4795 58.1724 22.648 58.1504 22.8192C58.1276 22.9942 58.1166 23.1613 58.1166 23.3215C58.1166 23.528 58.1474 23.7146 58.2093 23.8821C58.2715 24.0498 58.3585 24.1903 58.4737 24.3044C58.5895 24.4211 58.7277 24.5086 58.891 24.5716C59.0543 24.6346 59.2374 24.6661 59.4429 24.6661C59.6316 24.6661 59.8063 24.6346 59.9639 24.5762C60.1159 24.5202 60.2537 24.4386 60.3695 24.3362C60.482 24.2364 60.5723 24.1174 60.6339 23.9841C60.6986 23.8488 60.7312 23.7035 60.73 23.5568C60.73 23.3944 60.7019 23.2465 60.6483 23.1153C60.599 22.9901 60.5204 22.8753 60.4174 22.7781C60.3142 22.6825 60.1882 22.6078 60.0483 22.5593C59.8941 22.5064 59.7297 22.4801 59.564 22.4818C59.4569 22.4818 59.3528 22.494 59.2514 22.5182C59.1528 22.5425 59.0581 22.5775 58.9696 22.6226C58.8838 22.6655 58.8052 22.7185 58.736 22.7801C58.6684 22.8411 58.6122 22.9091 58.5727 22.9866H58.5613C58.5696 22.8839 58.5856 22.7818 58.6092 22.681C58.6346 22.5766 58.6711 22.4768 58.7193 22.3823C58.7672 22.2878 58.8291 22.2026 58.905 22.1251C58.9865 22.0467 59.0864 21.9847 59.1979 21.9431C59.3205 21.8922 59.4502 21.8555 59.5837 21.834L59.6721 21.82C59.7601 21.806 59.8441 21.7926 59.9244 21.778C60.0315 21.7587 60.1299 21.7339 60.2203 21.6978ZM58.654 23.773C58.6106 23.6504 58.5898 23.5226 58.5925 23.3944C58.6113 23.3208 58.6457 23.2509 58.6939 23.1882C58.7434 23.1215 58.8053 23.0624 58.8769 23.0132C59.0423 22.9003 59.2468 22.8396 59.4569 22.8411C59.7189 22.8411 59.9161 22.9111 60.054 23.0499C60.1922 23.1905 60.2598 23.3649 60.2598 23.5764C60.2598 23.6808 60.237 23.7756 60.1979 23.8628C60.1598 23.9489 60.1022 24.0274 60.0286 24.0936C59.955 24.1599 59.8669 24.2127 59.7695 24.2487C59.6684 24.2875 59.5583 24.307 59.4345 24.307C59.3107 24.307 59.1979 24.2851 59.0938 24.2414C58.9904 24.1985 58.899 24.1364 58.8261 24.0594C58.7497 23.9736 58.6916 23.8766 58.6544 23.773H58.654ZM64.1432 22.4576H63.6981V24.6176H64.1432V22.4576ZM61.3719 22.4576H61.817V23.1056H62.2283C62.4224 23.1056 62.5797 23.1275 62.7069 23.1686C62.8337 23.2101 62.9351 23.2658 63.0111 23.3337C63.087 23.4017 63.1406 23.4819 63.1717 23.5714C63.2025 23.6613 63.2196 23.7534 63.2196 23.8506C63.2196 23.9477 63.2025 24.0401 63.166 24.1323C63.1322 24.2245 63.073 24.3044 62.994 24.3773C62.9153 24.4502 62.8083 24.5086 62.6727 24.5523C62.5378 24.5958 62.3745 24.62 62.1774 24.62H61.3692V22.4576H61.3719ZM61.817 23.4667V24.2583H62.1409C62.3635 24.2583 62.5211 24.2245 62.6111 24.1562C62.7015 24.0883 62.7463 23.9914 62.7463 23.8628C62.7463 23.7316 62.6985 23.6324 62.6085 23.5641C62.5154 23.4962 62.3605 23.4621 62.1466 23.4621H61.817V23.4667Z" fill="black"/>
<path d="M67.0864 24.3068C66.9793 24.4258 66.8384 24.5156 66.6694 24.5763C66.496 24.6378 66.3104 24.6691 66.1232 24.6684C65.937 24.6706 65.7519 24.6436 65.5767 24.5885C65.4193 24.5388 65.2755 24.4611 65.1544 24.3604C65.0347 24.2596 64.9406 24.138 64.8783 24.0034C64.8112 23.8559 64.7778 23.6984 64.7799 23.5397C64.7799 23.3822 64.8107 23.2363 64.8756 23.0984C64.9347 22.9649 65.0247 22.8433 65.14 22.7414C65.2531 22.6393 65.3876 22.562 65.5402 22.5013C65.7007 22.4397 65.8746 22.4091 66.0499 22.4115C66.2497 22.4115 66.4358 22.4334 66.6048 22.4768C66.7738 22.5206 66.9174 22.5935 67.0355 22.6956L66.83 22.9989C66.7307 22.9204 66.6136 22.8608 66.4863 22.8239C66.3652 22.7899 66.2387 22.7728 66.1115 22.7732C65.9994 22.7732 65.8923 22.7924 65.7879 22.8286C65.6854 22.8647 65.5918 22.9176 65.5121 22.9843C65.4311 23.0534 65.367 23.1359 65.3234 23.227C65.2748 23.3265 65.2509 23.4339 65.2531 23.542C65.2531 23.6613 65.2782 23.7681 65.3261 23.8599C65.3739 23.955 65.4388 24.0349 65.5202 24.1029C65.6022 24.1711 65.6975 24.2219 65.8076 24.256C65.9177 24.2898 66.0332 24.3094 66.157 24.3094C66.2982 24.311 66.4378 24.2843 66.5653 24.2315C66.6824 24.1822 66.7876 24.1139 66.8752 24.0303L67.0864 24.3068ZM67.314 22.4576H69.5984V22.8411H68.6801V24.6174H68.235V22.8411H67.3173V22.4576H67.314Z" fill="black"/>
<path fill-rule="evenodd" clip-rule="evenodd" d="M70.5276 22.4578H70.0825V25.5786H70.5276V24.5181C70.6177 24.5692 70.7247 24.6056 70.8486 24.6298C70.9724 24.6541 71.1019 24.666 71.2344 24.666C71.4316 24.666 71.6089 24.6345 71.7696 24.5765C71.9236 24.519 72.0633 24.4358 72.1805 24.3315C72.2969 24.2256 72.3869 24.0999 72.4449 23.9622C72.5072 23.8193 72.5383 23.6662 72.5383 23.5037C72.5383 23.3433 72.5102 23.1954 72.4566 23.0618C72.4062 22.935 72.3278 22.818 72.2257 22.7174C72.1256 22.6193 72.0014 22.5421 71.8623 22.4916C71.7102 22.4347 71.5459 22.4065 71.3804 22.4091C71.2063 22.4091 71.043 22.4383 70.8881 22.4966C70.7331 22.5549 70.612 22.6249 70.5276 22.7124V22.4578ZM70.8375 22.8583C70.9644 22.7999 71.1019 22.7708 71.2515 22.7708C71.381 22.7708 71.4965 22.7877 71.6009 22.8241C71.7023 22.8606 71.7866 22.9116 71.8573 22.9796C71.9275 23.0476 71.9811 23.1254 72.0146 23.2173C72.0514 23.3095 72.0681 23.4092 72.0681 23.5183C72.0681 23.635 72.0457 23.7391 72.0065 23.8362C71.9696 23.9283 71.911 24.0127 71.8345 24.0838C71.7576 24.1542 71.6646 24.2095 71.5614 24.2463C71.4464 24.2883 71.3226 24.3089 71.198 24.307C71.0772 24.307 70.9644 24.295 70.8573 24.2708C70.74 24.243 70.6288 24.1987 70.528 24.1396V23.0691C70.6066 22.9869 70.711 22.9166 70.8375 22.8583ZM75.9512 22.4575H75.5061V24.6176H75.9512V22.4575ZM73.1775 22.4575H73.6226V23.1056H74.0336C74.2277 23.1056 74.3857 23.1275 74.5122 23.1686C74.6393 23.21 74.7407 23.2657 74.8167 23.3337C74.8927 23.4016 74.9462 23.4818 74.977 23.5714C75.0081 23.6612 75.0249 23.7534 75.0249 23.8505C75.0249 23.9476 75.0081 24.0401 74.9713 24.1323C74.9379 24.2244 74.8786 24.3043 74.7996 24.3773C74.721 24.4502 74.6139 24.5085 74.4784 24.5523C74.3435 24.5957 74.1802 24.6199 73.9831 24.6199H73.1748V22.4575H73.1775ZM73.6256 23.4667V24.2583H73.9496C74.1718 24.2583 74.3298 24.2244 74.4198 24.1562C74.5098 24.0882 74.555 23.9914 74.555 23.8628C74.555 23.7315 74.5072 23.6323 74.4171 23.5641C74.3241 23.4961 74.1691 23.462 73.9553 23.462H73.6256V23.4667Z" fill="black"/>
<path d="M78.0865 23.4988L79.0383 24.6176H78.4922L77.7569 23.7438L77.0106 24.6176H76.4925L77.4386 23.518L76.5484 22.4575H77.0953L77.774 23.273L78.4634 22.4575H78.9821L78.0865 23.4988ZM38.9918 27.2872H37.626V29.088H37.1809V26.9282H39.4366V29.088H38.9915L38.9918 27.2872ZM41.9626 27.3114H41.0841L41.0557 27.6754C41.0249 27.9837 40.9827 28.2314 40.9235 28.4204C40.8642 28.6099 40.791 28.7555 40.7066 28.8573C40.6223 28.9594 40.5236 29.0294 40.4108 29.0638C40.2944 29.1005 40.1714 29.1186 40.0477 29.1171L40.0139 28.7432C40.0713 28.7444 40.1282 28.7336 40.1799 28.7117C40.2421 28.6875 40.3037 28.6341 40.3629 28.5542C40.4222 28.4714 40.4757 28.355 40.5236 28.2042C40.5714 28.0517 40.6025 27.8528 40.6193 27.6025L40.6645 26.9302H42.4077V29.0903H41.9626V27.3114Z" fill="black"/>
<path fill-rule="evenodd" clip-rule="evenodd" d="M43.6074 26.9333C43.4635 26.9671 43.334 27.0155 43.2242 27.0762L43.3427 27.3821C43.4441 27.3384 43.5455 27.3019 43.6466 27.2704C43.748 27.2389 43.8775 27.2243 44.0324 27.2243C44.1563 27.2243 44.255 27.2413 44.331 27.2751C44.4073 27.3069 44.4635 27.3553 44.503 27.4136C44.5421 27.472 44.5676 27.5449 44.5816 27.6295C44.5957 27.7146 44.6014 27.8068 44.6014 27.9063C44.5102 27.851 44.4062 27.8138 44.2968 27.7972C44.1912 27.7789 44.0839 27.7691 43.9762 27.768C43.844 27.768 43.7198 27.7849 43.6014 27.8141C43.4832 27.8433 43.3818 27.887 43.3002 27.9453C43.2167 28.0035 43.1492 28.0773 43.1027 28.1612C43.0533 28.253 43.0285 28.3535 43.0301 28.4549C43.0301 28.6658 43.1004 28.8311 43.2409 28.9475C43.3815 29.0639 43.5679 29.1222 43.7988 29.1222C44.0073 29.1222 44.1733 29.0907 44.3002 29.0274C44.4267 28.9644 44.5277 28.8915 44.6014 28.8087V29.0881H45.0184V27.763C45.0184 27.4816 44.9477 27.2631 44.8042 27.1103C44.6633 26.9572 44.4126 26.8799 44.0579 26.8799C43.9057 26.88 43.7542 26.8981 43.6074 26.9333ZM44.3537 28.6827C44.2526 28.746 44.1201 28.7751 43.9568 28.7751C43.8102 28.7751 43.7004 28.7436 43.6218 28.6827C43.5428 28.6197 43.5033 28.5368 43.5033 28.4353C43.5033 28.3747 43.5174 28.3236 43.5485 28.2775C43.5793 28.2315 43.6218 28.195 43.6696 28.1658C43.7175 28.1367 43.7764 28.1148 43.8413 28.1002C43.9057 28.0857 43.972 28.0785 44.0384 28.0786C44.258 28.0786 44.4467 28.1247 44.6017 28.2216V28.4957C44.5285 28.5669 44.4452 28.63 44.3537 28.6827Z" fill="black"/>
<path d="M45.4543 26.9282H47.7384V27.3115H46.8201V29.0877H46.375V27.3115H45.4574V26.9282H45.4543Z" fill="black"/>
<path fill-rule="evenodd" clip-rule="evenodd" d="M49.8172 29.0661C49.9863 29.0201 50.1298 28.9495 50.2536 28.8526L50.1184 28.5516C50.0368 28.6149 49.927 28.6683 49.7945 28.7121C49.6623 28.7558 49.513 28.7774 49.3494 28.7774C49.1047 28.7774 48.9019 28.7217 48.7413 28.6076C48.5807 28.4936 48.4936 28.3335 48.4736 28.1293H50.4002C50.4196 28.0543 50.4283 27.9689 50.4283 27.8697C50.4283 27.7218 50.3972 27.5883 50.3353 27.4669C50.2776 27.3491 50.1933 27.2427 50.0873 27.154C49.9803 27.0657 49.8539 26.9972 49.7158 26.9524C49.5713 26.9036 49.4174 26.8788 49.2624 26.8795C49.0539 26.8795 48.8708 26.911 48.7102 26.9694C48.5586 27.0248 48.4217 27.1066 48.3076 27.2097C48.1965 27.3122 48.111 27.4336 48.0566 27.5664C47.9973 27.7078 47.9679 27.8574 47.9696 28.008C47.9696 28.178 48.003 28.3332 48.0653 28.4717C48.1275 28.61 48.2202 28.729 48.3357 28.8284C48.4511 28.9279 48.592 29.0031 48.7584 29.0565C48.9363 29.1117 49.1241 29.1388 49.3129 29.1367C49.4792 29.1367 49.6482 29.1122 49.8172 29.0661ZM48.6881 27.4013C48.826 27.2922 49.009 27.2388 49.2399 27.2388C49.4598 27.2388 49.6315 27.2922 49.7583 27.3917C49.8848 27.4938 49.9525 27.6343 49.9638 27.814H48.4431C48.4646 27.6551 48.5516 27.5084 48.6881 27.4013ZM50.6452 26.9282H51.2085L52.0672 27.9695L51.1492 29.088H50.603L51.5659 27.9692L50.6452 26.9282ZM52.177 26.9282H52.6221V29.088H52.177V26.9282ZM54.2131 29.088L53.2332 27.9692L54.1485 26.9279H53.5963L52.7319 27.9692L53.6612 29.088H54.2131ZM56.2465 29.0661C56.4155 29.0201 56.5591 28.9495 56.6829 28.8526L56.5477 28.5516C56.4661 28.6149 56.3563 28.6683 56.2241 28.7121C56.0916 28.7558 55.9423 28.7774 55.779 28.7774C55.534 28.7774 55.3312 28.7217 55.1706 28.6076C55.0099 28.4936 54.9229 28.3335 54.9028 28.1293H56.8295C56.8493 28.0543 56.8576 27.9689 56.8576 27.8697C56.8576 27.7218 56.8268 27.5883 56.7646 27.4669C56.7069 27.3492 56.6227 27.2428 56.5169 27.154C56.4098 27.0657 56.2833 26.9972 56.1451 26.9524C56.0006 26.9035 55.8467 26.8788 55.6917 26.8795C55.4835 26.8795 55.3001 26.911 55.1394 26.9694C54.9881 27.0249 54.8512 27.1067 54.7372 27.2097C54.6259 27.312 54.5404 27.4335 54.4862 27.5664C54.4268 27.7078 54.3973 27.8574 54.3992 28.008C54.3992 28.178 54.4326 28.3332 54.4949 28.4717C54.5568 28.61 54.6498 28.729 54.7653 28.8284C54.8808 28.9279 55.0213 29.0031 55.1876 29.0565C55.3657 29.1117 55.5536 29.1388 55.7425 29.1367C55.9137 29.1356 56.0836 29.1118 56.2465 29.0661ZM55.1174 27.4013C55.2556 27.2922 55.4386 27.2388 55.6696 27.2388C55.8864 27.2388 56.0608 27.2922 56.1876 27.3917C56.3145 27.4938 56.3817 27.6343 56.3931 27.814H54.8724C54.8939 27.6551 54.9809 27.5084 55.1174 27.4013ZM58.6632 26.2026C58.4011 26.2026 58.2575 26.0763 58.2348 25.824H57.8154C57.8154 25.9208 57.8352 26.0083 57.8717 26.0908C57.9085 26.1734 57.962 26.2437 58.0323 26.302C58.1026 26.3603 58.1929 26.4064 58.2967 26.4426C58.4011 26.4791 58.5223 26.496 58.6601 26.496C58.7767 26.498 58.8926 26.4798 59.0012 26.4426C59.1026 26.4088 59.1869 26.3603 59.2602 26.302C59.332 26.2426 59.3885 26.1706 59.4262 26.0908C59.4657 26.0083 59.4854 25.9208 59.4854 25.824H59.0688C59.0487 26.0763 58.9108 26.2026 58.6632 26.2026ZM57.4604 26.9279V29.088H57.9055L59.3529 27.4789V29.088H59.798V26.9279H59.3529L57.9055 28.5371V26.9279H57.4604Z" fill="black"/>
</g>
<defs>
<clipPath id="clip0_261_45">
<rect width="80" height="35" fill="white"/>
</clipPath>
</defs>
</svg>
