<svg width="31" height="30" viewBox="0 0 31 30" fill="none" xmlns="http://www.w3.org/2000/svg">
<path d="M23.0162 19.395C24.8318 16.9175 25.6449 13.8459 25.293 10.7947C24.9411 7.74339 23.4501 4.93751 21.1183 2.93837C18.7864 0.939225 15.7858 -0.105746 12.7165 0.0125165C9.64733 0.130779 6.73595 1.40355 4.56485 3.5762C2.39376 5.74885 1.12307 8.66114 1.007 11.7304C0.890937 14.7997 1.93805 17.7997 3.93886 20.1301C5.93967 22.4605 8.74662 23.9495 11.7981 24.2992C14.8496 24.6489 17.9207 23.8336 20.3968 22.0162H20.395C20.4512 22.0912 20.5112 22.1625 20.5787 22.2319L27.7975 29.4506C28.1491 29.8024 28.626 30.0002 29.1234 30.0004C29.6208 30.0006 30.0978 29.8031 30.4497 29.4516C30.8015 29.1 30.9992 28.623 30.9994 28.1257C30.9996 27.6283 30.8022 27.1512 30.4506 26.7994L23.2318 19.5806C23.1648 19.5128 23.0927 19.452 23.0162 19.395ZM23.5 12.1875C23.5 13.5418 23.2332 14.8828 22.715 16.1339C22.1967 17.3851 21.4371 18.5219 20.4795 19.4795C19.5219 20.4371 18.3851 21.1968 17.1339 21.715C15.8827 22.2333 14.5417 22.5 13.1875 22.5C11.8332 22.5 10.4922 22.2333 9.24105 21.715C7.98988 21.1968 6.85304 20.4371 5.89544 19.4795C4.93783 18.5219 4.17822 17.3851 3.65997 16.1339C3.14172 14.8828 2.87497 13.5418 2.87497 12.1875C2.87497 9.45245 3.96147 6.82943 5.89544 4.89546C7.8294 2.96149 10.4524 1.875 13.1875 1.875C15.9225 1.875 18.5455 2.96149 20.4795 4.89546C22.4135 6.82943 23.5 9.45245 23.5 12.1875Z" fill="black"/>
</svg>
