<svg width="398" height="62" viewBox="0 0 398 62" fill="none" xmlns="http://www.w3.org/2000/svg">
<path d="M3.46775 0.75641H33.8908V2.19231L8.04467 43.6538H27.3395L32.9934 32.3462H34.4293L33.0831 45H0.595954V43.6538L26.4421 2.19231H9.30108L3.64724 12.6923H2.21134L3.46775 0.75641ZM60.2705 42.1282C62.1851 40.6923 63.3816 38.8376 63.8603 36.5641H65.2064C64.668 39.3162 63.3517 41.5 61.2577 43.1154C59.1637 44.7308 56.591 45.5385 53.5398 45.5385C49.3517 45.5385 45.8517 44.1624 43.0398 41.4103C40.2876 38.7179 38.9116 35.188 38.9116 30.8205C38.9116 26.3932 40.2577 22.8034 42.95 20.0513C45.6423 17.2393 48.903 15.8333 52.7321 15.8333C56.621 15.8333 59.6722 17 61.8859 19.3333C64.1594 21.6068 65.3261 24.4786 65.3859 27.9487H45.0141V33.4231C45.0141 36.7137 45.7321 39.3462 47.168 41.3205C48.7235 43.3547 50.8175 44.3718 53.45 44.3718C56.0825 44.3718 58.356 43.6239 60.2705 42.1282ZM53.091 17.0897C50.6381 17.0897 48.7235 17.9573 47.3475 19.6923C45.9714 21.3675 45.2235 23.6709 45.1039 26.6026H59.2834C59.2834 20.2607 57.2193 17.0897 53.091 17.0897ZM97.6947 16.4615V17.4487L93.9254 18.8846L81.4511 54.9615C80.7331 57.1154 79.8058 58.6709 78.669 59.6282C77.5921 60.6453 76.0665 61.1538 74.0921 61.1538C72.1177 61.1538 70.5323 60.6752 69.3357 59.7179C68.1989 58.7607 67.6306 57.594 67.6306 56.2179C67.6306 54.8419 67.9596 53.8248 68.6177 53.1667C69.2759 52.5085 70.2032 52.1795 71.3998 52.1795C72.6562 52.1795 73.5836 52.7778 74.1818 53.9744C73.6434 54.6923 73.3741 55.4402 73.3741 56.2179C73.3741 57.0556 73.6135 57.7137 74.0921 58.1923C74.5707 58.6709 75.169 58.9103 75.887 58.9103C77.622 58.9103 78.9682 57.594 79.9254 54.9615L83.2459 45.359L70.4126 18.0769L66.7331 17.4487V16.4615H80.4639V17.4487L76.6049 18.1667L85.8485 37.9103L92.4895 18.8846L87.6434 17.4487V16.4615H97.6947ZM121.82 45V39.2564C119.846 43.4444 116.794 45.5385 112.666 45.5385C108.598 45.5385 105.337 44.1923 102.884 41.5C100.491 38.7479 99.2943 35.1282 99.2943 30.641C99.2943 26.1538 100.491 22.5641 102.884 19.8718C105.337 17.1795 108.598 15.8333 112.666 15.8333C116.794 15.8333 119.846 17.9573 121.82 22.2051V2.37179L117.961 1.92308V0.75641H127.384V43.3846L131.243 43.8333V45H121.82ZM105.397 27.9487V33.4231C105.397 40.6026 107.94 44.1923 113.025 44.1923C115.478 44.1923 117.542 43.1752 119.217 41.141C120.893 39.1068 121.76 36.6838 121.82 33.8718V27.5897C121.76 24.7179 120.893 22.265 119.217 20.2308C117.542 18.1966 115.478 17.1795 113.025 17.1795C107.94 17.1795 105.397 20.7692 105.397 27.9487ZM164.902 27.859H158.71V43.0256L163.825 43.8333V45H147.582V43.8333L152.607 43.0256V2.73077L147.582 1.92308V0.75641H164.902C175.671 0.75641 181.056 5.2735 181.056 14.3077C181.056 23.3419 175.671 27.859 164.902 27.859ZM164.184 2.19231H158.71V26.5128H164.184C170.945 26.5128 174.325 22.8333 174.325 15.4744V13.2308C174.325 5.87179 170.945 2.19231 164.184 2.19231ZM206.355 42.1282C208.269 40.6923 209.466 38.8376 209.944 36.5641H211.29C210.752 39.3162 209.436 41.5 207.342 43.1154C205.248 44.7308 202.675 45.5385 199.624 45.5385C195.436 45.5385 191.936 44.1624 189.124 41.4103C186.372 38.7179 184.996 35.188 184.996 30.8205C184.996 26.3932 186.342 22.8034 189.034 20.0513C191.726 17.2393 194.987 15.8333 198.816 15.8333C202.705 15.8333 205.756 17 207.97 19.3333C210.243 21.6068 211.41 24.4786 211.47 27.9487H191.098V33.4231C191.098 36.7137 191.816 39.3462 193.252 41.3205C194.808 43.3547 196.902 44.3718 199.534 44.3718C202.166 44.3718 204.44 43.6239 206.355 42.1282ZM199.175 17.0897C196.722 17.0897 194.808 17.9573 193.431 19.6923C192.055 21.3675 191.308 23.6709 191.188 26.6026H205.367C205.367 20.2607 203.303 17.0897 199.175 17.0897ZM214.881 45V43.8333L218.74 43.3846V17.9872L214.881 17.4487V16.3718H224.304V20.5897C226.638 17.4188 229.27 15.8333 232.202 15.8333C233.578 15.8333 234.804 16.1923 235.881 16.9103C236.958 17.6282 237.497 18.5855 237.497 19.782C237.497 20.9188 237.168 21.8162 236.509 22.4744C235.851 23.0726 234.954 23.3718 233.817 23.3718C232.74 23.3718 231.873 22.9231 231.215 22.0256C231.633 21.4872 231.813 20.9188 231.753 20.3205C231.753 19.7222 231.544 19.2137 231.125 18.7949C230.706 18.3761 230.138 18.1667 229.42 18.1667C227.984 18.1667 226.279 19.6624 224.304 22.6538V43.3846L228.702 43.8333V45H214.881ZM239.08 45V43.8333L242.939 43.3846V17.9872L239.08 17.4487V16.3718H242.939V11.7051C242.939 4.04701 246.11 0.217946 252.452 0.217946C254.606 0.217946 256.401 0.756408 257.837 1.83333C259.273 2.85043 259.991 4.25641 259.991 6.05128C259.991 7.1282 259.662 8.02564 259.004 8.74359C258.405 9.46154 257.627 9.82051 256.67 9.82051C255.713 9.82051 254.875 9.46154 254.157 8.74359C253.439 8.02564 253.08 7.21795 253.08 6.32051C254.397 5.96154 255.055 5.09402 255.055 3.71795C255.055 3.11966 254.786 2.5812 254.247 2.10256C253.768 1.62393 253.17 1.38462 252.452 1.38462C251.016 1.38462 249.999 2.07265 249.401 3.44872C248.803 4.76496 248.504 6.94872 248.504 10V16.3718H255.683V17.4487L248.504 17.9872V43.3846L255.055 43.8333V45H239.08ZM266.832 16.3718V37.5513C266.832 41.5598 268.388 43.5641 271.499 43.5641C274.67 43.5641 277.721 41.6197 280.653 37.7308V17.9872L276.704 17.4487V16.3718H286.127V43.3846L290.076 43.8333V45H280.653V39.7051C277.721 43.594 274.131 45.5385 269.884 45.5385C267.191 45.5385 265.067 44.8803 263.512 43.5641C262.016 42.2479 261.268 40.2735 261.268 37.641V17.9872L257.319 17.4487V16.3718H266.832ZM311.226 45V43.8333L314.546 43.3846V23.9103C314.546 19.8419 313.08 17.8077 310.149 17.8077C307.217 17.8077 304.465 19.6624 301.892 23.3718V43.3846L305.213 43.8333V45H292.469V43.8333L296.328 43.3846V17.9872L292.469 17.4487V16.3718H301.892V21.4872C304.704 17.7179 307.995 15.8333 311.764 15.8333C316.49 15.8333 319.243 17.8077 320.02 21.7564C322.892 17.8077 326.243 15.8333 330.072 15.8333C332.704 15.8333 334.738 16.4915 336.174 17.8077C337.67 19.1239 338.418 21.0983 338.418 23.7308V43.3846L342.277 43.8333V45H329.623V43.8333L332.854 43.3846V23.9103C332.854 19.8419 331.388 17.8077 328.456 17.8077C325.525 17.8077 322.773 19.6624 320.2 23.3718V43.3846L323.52 43.8333V45H311.226ZM366.794 42.1282C368.709 40.6923 369.905 38.8376 370.384 36.5641H371.73C371.191 39.3162 369.875 41.5 367.781 43.1154C365.687 44.7308 363.114 45.5385 360.063 45.5385C355.875 45.5385 352.375 44.1624 349.563 41.4103C346.811 38.7179 345.435 35.188 345.435 30.8205C345.435 26.3932 346.781 22.8034 349.473 20.0513C352.166 17.2393 355.426 15.8333 359.256 15.8333C363.144 15.8333 366.196 17 368.409 19.3333C370.683 21.6068 371.85 24.4786 371.909 27.9487H351.538V33.4231C351.538 36.7137 352.256 39.3462 353.691 41.3205C355.247 43.3547 357.341 44.3718 359.973 44.3718C362.606 44.3718 364.879 43.6239 366.794 42.1282ZM359.614 17.0897C357.161 17.0897 355.247 17.9573 353.871 19.6923C352.495 21.3675 351.747 23.6709 351.627 26.6026H365.807C365.807 20.2607 363.743 17.0897 359.614 17.0897ZM381.782 40.0641C381.782 42.9957 383.757 44.4615 387.705 44.4615C389.739 44.4615 391.504 43.953 393 42.9359C394.496 41.9188 395.244 40.6923 395.244 39.2564C395.244 37.8205 394.735 36.7735 393.718 36.1154C392.701 35.3974 391.026 34.6496 388.692 33.8718L381.513 31.6282C378.222 30.6709 376.577 28.2179 376.577 24.2692C376.577 21.8761 377.534 19.8718 379.449 18.2564C381.363 16.641 383.846 15.8333 386.898 15.8333C389.949 15.8333 392.342 16.3718 394.077 17.4487C395.812 18.4658 396.68 19.8419 396.68 21.5769C396.68 22.4744 396.38 23.2521 395.782 23.9103C395.184 24.5684 394.466 24.8974 393.628 24.8974C392.791 24.8974 392.103 24.688 391.564 24.2692C391.086 23.8504 390.846 23.2821 390.846 22.5641C391.564 22.0256 391.953 21.3077 392.013 20.4103C392.013 18.0769 390.338 16.9103 386.987 16.9103C384.594 16.9103 382.68 17.3889 381.244 18.3462C379.868 19.3034 379.18 20.4103 379.18 21.6667C379.18 22.9231 379.419 23.8205 379.898 24.359C380.436 24.8974 381.423 25.406 382.859 25.8846L391.654 28.5769C393.688 29.235 395.184 30.2222 396.141 31.5385C397.158 32.8547 397.667 34.6496 397.667 36.9231C397.667 39.1368 396.799 41.141 395.064 42.9359C393.389 44.6709 390.816 45.5385 387.346 45.5385C379.868 45.5385 376.128 43.5043 376.128 39.4359C376.128 38.2991 376.457 37.3718 377.116 36.6538C377.774 35.8761 378.551 35.4872 379.449 35.4872C381.184 35.4872 382.291 36.265 382.769 37.8205C382.111 38.5385 381.782 39.2863 381.782 40.0641Z" fill="black"/>
</svg>
